# Alias OBJ Model File
# Exported from SketchUp, (c) 2000-2006 Google, Inc.
# File units = millimeters

mtllib 4.mtl

g Mesh1 Group2 Group1 Model

usemtl __1
v 7.04992e-016 108 100
vt 0 -1
vn 0 -1 -0
v 7.04992e-016 108 -0
vt 0 0
v 100 108 -0
vt -1 0
v 100 108 100
vt -1 -1
f 1/1/1 2/2/1 3/3/1 4/4/1 

usemtl __3
vn -1 0 -0
vt 1 0
v 7.04992e-016 208 100
vt 1 1
v 7.04992e-016 208 -0
vt 0 1
f 2/2/2 1/5/2 5/6/2 6/7/2 

usemtl __2
vn 0 0 1
v 100 208 100
f 1/2/3 4/5/3 7/6/3 5/7/3 

usemtl __3
vn 1 0 -0
v 100 208 -0
vt -1 1
f 4/3/4 3/2/4 8/7/4 7/8/4 

usemtl __2
vn 0 0 -1
f 3/3/5 2/2/5 6/7/5 8/8/5 

usemtl __1
vn 0 1 -0
vt 1 -1
f 6/2/6 5/1/6 7/9/6 8/5/6 

g Mesh2 Group3 G_5_1 Group1 Model

usemtl __4
v 0 0 100
vt -2.00096 -1.0003
v 0 0 -0
vt -2.00096 -0.000296349
v 100 0 -0
vt -3.00096 -0.000296349
v 100 0 100
vt -3.00096 -1.0003
f 9/10/1 10/11/1 11/12/1 12/13/1 

usemtl __6
vt -0.000117827 0
vt 0.999882 0
v 0 100 100
vt 0.999882 1
v 0 100 -0
vt -0.000117827 1
f 10/14/2 9/15/2 13/16/2 14/17/2 

usemtl __5
vt 2.00041 0.00388086
vt 3.00041 0.00388086
v 100 100 100
vt 3.00041 1.00388
vt 2.00041 1.00388
f 9/18/3 12/19/3 15/20/3 13/21/3 

usemtl __6
vt -0.999765 -7.12105e-005
vt 0.000234828 -7.12105e-005
v 100 100 -0
vt 0.000234828 0.999929
vt -0.999765 0.999929
f 12/22/4 11/23/4 16/24/4 15/25/4 

usemtl __5
vt -2.99863 0
vt -1.99863 0
vt -1.99863 1
vt -2.99863 1
f 11/26/5 10/27/5 14/28/5 16/29/5 

usemtl __4
vt 2.00095 0.00287156
vt 2.00095 -0.997128
vt 3.00095 -0.997128
vt 3.00095 0.00287156
f 14/30/6 13/31/6 15/32/6 16/33/6 

