# Alias OBJ Model File
# Exported from SketchUp, (c) 2000-2006 Google, Inc.
# File units = millimeters

mtllib 1.mtl

g Mesh1 Model

usemtl __1
v 100 0 -0
vt -1 0
vn 0 -1 -0
v 100 0 76.9
vt -1 -0.9997
v 0 0 76.9
vt 0 -0.9997
v 0 0 -0
vt 0 0
f 1/1/1 2/2/1 3/3/1 4/4/1 

usemtl __3
vt -0.999675 0
vn 1 0 -0
v 100 307.7 -0
vt 0 1
v 100 307.7 76.9
vt -0.999675 1
f 2/5/2 1/4/2 5/6/2 6/7/2 

usemtl __2
vn 0 0 -1
v 0 307.7 -0
vt 0 1.00002
vt -1 1.00002
f 1/1/3 4/4/3 7/8/3 5/9/3 

usemtl __3
vn -1 0 -0
vt 0.999675 0
v 0 307.7 76.9
vt 0.999675 1
f 4/4/4 3/10/4 8/11/4 7/6/4 

usemtl __2
vn 0 0 1
vt 1 0
vt 1 1.00002
f 3/4/5 2/12/5 6/13/5 8/8/5 

usemtl __1
vt 1 -0.9997
vn 0 1 -0
f 6/14/6 5/12/6 7/4/6 8/3/6 

