# Alias OBJ Model File
# Exported from SketchUp, (c) 2000-2006 Google, Inc.
# File units = millimeters

mtllib 1.mtl

g Mesh1 Group1 Model

usemtl ____
v 150 34.4 -78.55
vt -1 -1.001
vn 0 -1 -0
v 50 34.4 -78.55
vt 0 -1.001
v 50 34.4 -121.45
vt 0 0
v 150 34.4 -121.45
vt -1 0
f 1/1/1 2/2/1 3/3/1 4/4/1 

usemtl ____2_
vn 0 0 1
vt 1 0
v 150 134.4 -78.55
vt 1 1
v 50 134.4 -78.55
vt 0 1
f 2/3/2 1/5/2 5/6/2 6/7/2 

usemtl ____1_
vt -1.001 0
vn 1 0 -0
v 150 134.4 -121.45
vt -1.001 1
f 1/8/3 4/3/3 7/7/3 5/9/3 

usemtl ____2_
vn 0 0 -1
v 50 134.4 -121.45
vt -1 1
f 4/4/4 3/3/4 8/7/4 7/10/4 

usemtl ____1_
vn -1 0 -0
vt 1.001 0
vt 1.001 1
f 3/3/5 2/11/5 6/12/5 8/7/5 

usemtl ____
vn 0 1 -0
vt 1 -1.001
f 6/2/6 5/13/6 7/5/6 8/3/6 

g Mesh2 Group2 Model

usemtl ____3_
v 50 5 -78.55
v 150 5 -78.55
v 150 26.4 -78.55
vt 1 0.998667
v 50 26.4 -78.55
vt 0 0.998667
f 9/3/2 10/5/2 11/14/2 12/15/2 

usemtl ____4_
v 50 5 -121.45
v 150 5 -121.45
f 13/3/1 14/4/1 10/1/1 9/2/1 

usemtl ____3_
v 50 26.4 -121.45
v 150 26.4 -121.45
vt -1 0.998667
f 14/4/4 13/3/4 15/15/4 16/16/4 

usemtl ____5_
vt 1 0.997669
vt 0 0.997669
f 13/3/5 9/5/5 12/17/5 15/18/5 

usemtl ____4_
f 16/5/6 15/3/6 12/2/6 11/13/6 

usemtl ____5_
vt -1 0.997669
f 10/4/3 14/3/3 16/18/3 11/19/3 

g Mesh3 Group3 Model

usemtl __6
v 0 0 -200
vt -0.00375422 0.99563
v 0 0 -0
vt -0.00375422 -0.00436996
v 200 0 -0
vt 0.996246 -0.00436996
v 200 0 -200
vt 0.996246 0.99563
f 17/20/6 18/21/6 19/22/6 20/23/6 

