# Alias OBJ Model File
# Exported from SketchUp, (c) 2000-2006 Google, Inc.
# File units = millimeters

mtllib 7.mtl

g Mesh1 Model

usemtl __1
v 0 0 -0
vt 0 0
vn 0 -1 -0
v 100 0 -0
vt -1 0
v 100 0 100
vt -1 -1
v 0 0 100
vt 0 -1
f 1/1/1 2/2/1 3/3/1 4/4/1 

usemtl __2
vn 0 0 -1
v 0 33.3 -0
vt 0 0.999
v 100 33.3 -0
vt -1 0.999
f 2/2/2 1/1/2 5/5/2 6/6/2 

vn -1 0 -0
vt 1 0
v 0 33.3 100
vt 1 0.999
f 1/1/3 4/7/3 7/8/3 5/5/3 

vn 0 0 1
v 100 33.3 100
f 4/1/4 3/7/4 8/8/4 7/5/4 

vn 1 0 -0
f 3/2/5 2/1/5 6/5/5 8/6/5 

usemtl __1
vn 0 1 -0
vt 1 -1
f 6/7/6 5/1/6 7/4/6 8/9/6 

