# Alias OBJ Model File
# Exported from SketchUp, (c) 2000-2006 Google, Inc.
# File units = millimeters

mtllib 3.mtl

g Mesh1 Group1 Model

usemtl __1
v 0 0 76.9
vt 0 -0.9997
vn 0 -1 -0
v 0 0 -0
vt 0 0
v 100 0 -0
vt -1 0
v 100 0 76.9
vt -1 -0.9997
f 1/1/1 2/2/1 3/3/1 4/4/1 

usemtl __3
vn -1 0 -0
vt 0.999422 0
v 0 55.4 76.9
vt 0.999422 1
v 0 55.4 -0
vt 0 1
f 2/2/2 1/5/2 5/6/2 6/7/2 

usemtl __2
vn 0 0 1
vt 1 0
v 100 55.4 76.9
vt 1 1.00028
vt 0 1.00028
f 1/2/3 4/8/3 7/9/3 5/10/3 

usemtl __3
vt -0.999422 0
vn 1 0 -0
v 100 55.4 -0
vt -0.999422 1
f 4/11/4 3/2/4 8/7/4 7/12/4 

usemtl __2
vn 0 0 -1
vt -1 1.00028
f 3/3/5 2/2/5 6/10/5 8/13/5 

usemtl __1
vn 0 1 -0
vt 1 -0.9997
f 6/2/6 5/1/6 7/14/6 8/8/6 

g Mesh2 Group2 Model

usemtl __4
v 100 63.4 -0
v 100 63.4 76.9
v 0 63.4 76.9
v 0 63.4 -0
f 9/3/1 10/4/1 11/1/1 12/2/1 

usemtl __6
v 100 118.8 -0
v 100 118.8 76.9
f 10/11/4 9/2/4 13/7/4 14/12/4 

usemtl __5
v 0 118.8 -0
f 9/3/5 12/2/5 15/10/5 13/13/5 

usemtl __6
v 0 118.8 76.9
f 12/2/2 11/5/2 16/6/2 15/7/2 

usemtl __5
f 11/2/3 10/8/3 14/9/3 16/10/3 

usemtl __4
f 14/14/6 13/8/6 15/2/6 16/1/6 

g Mesh3 Group3 Model

v 100 126.8 -0
v 100 126.8 76.9
v 0 126.8 76.9
v 0 126.8 -0
f 17/3/1 18/4/1 19/1/1 20/2/1 

usemtl __6
v 100 182.2 -0
v 100 182.2 76.9
f 18/11/4 17/2/4 21/7/4 22/12/4 

usemtl __5
v 0 182.2 -0
f 17/3/5 20/2/5 23/10/5 21/13/5 

usemtl __6
v 0 182.2 76.9
f 20/2/2 19/5/2 24/6/2 23/7/2 

usemtl __5
f 19/2/3 18/8/3 22/9/3 24/10/3 

usemtl __4
f 22/14/6 21/8/6 23/2/6 24/1/6 

