# Alias OBJ Model File
# Exported from SketchUp, (c) 2000-2006 Google, Inc.
# File units = millimeters

mtllib 2.mtl

g Mesh1 Group1 Model

usemtl ____
v 72.5 5 -127.5
vt 0 0
vn -1 0 -0
v 72.5 5 -72.5
vt 1 0
v 72.5 21.5 -72.5
vt 1 1
v 72.5 21.5 -127.5
vt 0 1
f 1/1/1 2/2/1 3/3/1 4/4/1 

usemtl ____1_
v 127.5 5 -72.5
vt -1 -1
vn 0 -1 -0
vt 0 -1
v 127.5 5 -127.5
vt -1 0
f 5/5/2 2/6/2 1/1/2 6/7/2 

usemtl ____
vn 0 0 1
v 127.5 21.5 -72.5
f 2/1/3 5/2/3 7/3/3 3/4/3 

vn 1 0 -0
v 127.5 21.5 -127.5
vt -1 1
f 5/7/4 6/1/4 8/4/4 7/8/4 

vn 0 0 -1
f 6/7/5 1/1/5 4/4/5 8/8/5 

usemtl ____1_
vn 0 1 -0
vt 1 -1
f 3/6/6 7/9/6 8/2/6 4/1/6 

g Mesh2 Group2 Model

usemtl ___2_
v 72.5 29.5 -127.5
v 72.5 29.5 -72.5
v 72.5 84.5 -72.5
v 72.5 84.5 -127.5
f 9/1/1 10/2/1 11/3/1 12/4/1 

usemtl ___2_2_
v 127.5 29.5 -72.5
v 127.5 29.5 -127.5
f 13/5/2 10/6/2 9/1/2 14/7/2 

usemtl ___2_1_
v 127.5 84.5 -72.5
f 10/1/3 13/2/3 15/3/3 11/4/3 

usemtl ___2_
v 127.5 84.5 -127.5
f 13/7/4 14/1/4 16/4/4 15/8/4 

usemtl ___2_1_
f 14/7/5 9/1/5 12/4/5 16/8/5 

usemtl ___2_2_
f 11/6/6 15/9/6 16/2/6 12/1/6 

g Mesh3 Group3 Model

usemtl ____2_
v 127.5 92.5 -72.5
v 127.5 92.5 -127.5
v 127.5 147.5 -127.5
v 127.5 147.5 -72.5
f 17/7/4 18/1/4 19/4/4 20/8/4 

usemtl ____4_
v 72.5 92.5 -72.5
v 72.5 92.5 -127.5
f 17/6/2 21/9/2 22/2/2 18/1/2 

usemtl ____3_
v 72.5 147.5 -72.5
f 21/7/3 17/1/3 20/4/3 23/8/3 

usemtl ____4_
v 72.5 147.5 -127.5
f 23/5/6 20/6/6 19/1/6 24/7/6 

usemtl ____3_
f 18/1/5 22/2/5 24/3/5 19/4/5 

usemtl ____2_
f 22/1/1 21/2/1 23/3/1 24/4/1 

g Mesh4 Group4 __1 Model

usemtl __7
v 200 2.00371e-029 -190
vt -0.844624 -0.998
v 200 2.00371e-029 -10
vt 0.155376 -0.998
v 200 65 -10
vt 0.155376 -0.0694287
v 200 65 -190
vt -0.844624 -0.0694287
f 25/10/1 26/11/1 27/12/1 28/13/1 

g Mesh5 Group5 __1 Model

v 10 2.00371e-029 -200
vt -0.83731 -0.998009
vn -1.249e-016 0 1
v 190 2.00371e-029 -200
vt 0.16269 -0.998009
v 190 65 -200
vt 0.16269 -0.0694377
v 10 65 -200
vt -0.83731 -0.0694377
f 29/14/7 30/15/7 31/16/7 32/17/7 

g Mesh6 Group6 __1 Model

v 201 2.00371e-029 -10
vt -0.610437 -0.999719
v 201 2.00371e-029 -190
vt 0.389563 -0.999719
v 201 65 -190
vt 0.389563 -0.0711471
v 201 65 -10
vt -0.610437 -0.0711471
f 33/18/4 34/19/4 35/20/4 36/21/4 

g Mesh7 Group7 __1 Model

v 190 2.00371e-029 -201
vt -1.39651 -0.993722
vn 1.249e-016 0 -1
v 10 2.00371e-029 -201
vt -0.396512 -0.993722
v 10 65 -201
vt -0.396512 -0.0651509
v 190 65 -201
vt -1.39651 -0.0651509
f 37/22/8 38/23/8 39/24/8 40/25/8 

g Mesh8 Group8 __1 Model

usemtl __6
v 0 2.00371e-029 -200
vt -0.00375422 0.99563
v 0 2.00371e-029 -0
vt -0.00375422 -0.00436996
v 200 2.00371e-029 -0
vt 0.996246 -0.00436996
v 200 2.00371e-029 -200
vt 0.996246 0.99563
f 41/26/6 42/27/6 43/28/6 44/29/6 

g Mesh9 Group9 __1 Model

usemtl __7
v 10 2.00371e-029 1
v 190 2.00371e-029 1
v 190 65 1
v 10 65 1
f 45/14/7 46/15/7 47/16/7 48/17/7 

g Mesh10 Group10 __1 Model

v 190 2.00371e-029 4.51195e-014
v 10 2.00371e-029 2.26374e-014
v 10 65 2.26374e-014
v 190 65 4.51195e-014
f 49/22/8 50/23/8 51/24/8 52/25/8 

g Mesh11 Group11 __1 Model

v -1 2.00371e-029 -190
v -1 2.00371e-029 -10
v -1 65 -10
v -1 65 -190
f 53/10/1 54/11/1 55/12/1 56/13/1 

g Mesh12 Group12 __1 Model

v 6.76792e-014 2.00371e-029 -10
v 6.76792e-014 2.00371e-029 -190
v 6.76792e-014 65 -190
v 6.76792e-014 65 -10
f 57/18/4 58/19/4 59/20/4 60/21/4 

