# Alias OBJ Model File
# Exported from SketchUp, (c) 2000-2006 Google, Inc.
# File units = millimeters

mtllib 2.mtl

g Mesh1 Group2 Group1 Model

usemtl __1
v 100 0 -0
vt -1 0
vn 0 -1 -0
v 100 0 76.9
vt -1 -0.9997
v 0 0 76.9
vt 0 -0.9997
v 0 0 -0
vt 0 0
f 1/1/1 2/2/1 3/3/1 4/4/1 

usemtl __3
vt -0.999422 0
vn 1 0 -0
v 100 55.4 -0
vt 0 1
v 100 55.4 76.9
vt -0.999422 1
f 2/5/2 1/4/2 5/6/2 6/7/2 

usemtl __2
vn 0 0 -1
v 0 55.4 -0
vt 0 1.00028
vt -1 1.00028
f 1/1/3 4/4/3 7/8/3 5/9/3 

usemtl __3
vn -1 0 -0
vt 0.999422 0
v 0 55.4 76.9
vt 0.999422 1
f 4/4/4 3/10/4 8/11/4 7/6/4 

usemtl __2
vn 0 0 1
vt 1 0
vt 1 1.00028
f 3/4/5 2/12/5 6/13/5 8/8/5 

usemtl __1
vt 1 -0.9997
vn 0 1 -0
f 6/14/6 5/12/6 7/4/6 8/3/6 

g Mesh2 Group3 Group1 Model

v 100 63.4 -0
v 100 63.4 76.9
v 0 63.4 76.9
v 0 63.4 -0
f 9/1/1 10/2/1 11/3/1 12/4/1 

usemtl __3
v 100 118.8 -0
v 100 118.8 76.9
f 10/5/2 9/4/2 13/6/2 14/7/2 

usemtl __2
v 0 118.8 -0
f 9/1/3 12/4/3 15/8/3 13/9/3 

usemtl __3
v 0 118.8 76.9
f 12/4/4 11/10/4 16/11/4 15/6/4 

usemtl __2
f 11/4/5 10/12/5 14/13/5 16/8/5 

usemtl __1
f 14/14/6 13/12/6 15/4/6 16/3/6 

g Mesh3 Group4 Group1 Model

v 100 126.8 -0
v 100 126.8 76.9
v 0 126.8 76.9
v 0 126.8 -0
f 17/1/1 18/2/1 19/3/1 20/4/1 

usemtl __3
v 100 182.2 -0
v 100 182.2 76.9
f 18/5/2 17/4/2 21/6/2 22/7/2 

usemtl __2
v 0 182.2 -0
f 17/1/3 20/4/3 23/8/3 21/9/3 

usemtl __3
v 0 182.2 76.9
f 20/4/4 19/10/4 24/11/4 23/6/4 

usemtl __2
f 19/4/5 18/12/5 22/13/5 24/8/5 

usemtl __1
f 22/14/6 21/12/6 23/4/6 24/3/6 

